<svg width="200" height="200" viewBox="0 0 200 200" fill="none" xmlns="http://www.w3.org/2000/svg">
<g clip-path="url(#clip0_110_39)">
<path d="M86.825 1.07742C112.646 -0.436976 142.915 -0.121403 162.881 0.605908L160.528 32.7074C162.777 33.495 164.985 34.4004 167.072 35.4472C173.866 38.8562 181.845 45.189 181.648 54.696C181.435 64.9766 171.782 70.9892 164.53 73.866C171.485 75.3566 178.918 77.5116 185.167 80.8574C193.6 85.3724 201.138 92.9404 199.857 103.176C198.633 112.964 190.146 119.528 180.82 123.136C176.408 124.843 171.648 125.984 166.961 126.762C171.615 127.86 176.321 129.328 180.534 131.351C189.254 135.54 197.375 143.097 195.781 153.607C194.448 162.396 187.23 168.622 179.041 172.407C171.606 175.843 163.034 177.509 155.707 178.444C140.958 180.326 122.873 180.201 107.037 179.835C101.623 179.71 96.4572 179.558 91.546 179.413C80.9596 179.101 71.5562 178.823 63.4016 178.931C60.3104 178.972 57.853 179.07 55.9498 179.195C50.3826 187.434 45.2934 196.181 43.203 200L0 188.243C2.81116 183.108 10.2708 170.309 18.0511 159.553C23.6842 151.766 34.44 149.075 40.0804 148.043C33.6874 146.697 26.8598 144.719 21.0204 141.615C12.2943 136.977 5.27392 129.374 6.50996 119.393C7.71608 109.653 16.0766 103.051 25.418 99.3818C29.3802 97.8254 33.6256 96.7286 37.8484 95.9448C32.7478 95.207 27.5954 94.2106 23.0376 92.7872C17.4966 91.057 1.71171 84.9708 3.3138 71.5634C4.63442 60.5118 16.7719 55.2498 23.2062 53.2328C29.9292 51.125 37.6402 50.1 44.3642 49.4936C41.7618 48.7648 39.181 47.8984 36.7602 46.8574C30.5086 44.1692 20.313 37.9094 21.0898 27.2624C21.6934 18.9926 28.8336 13.6522 34.2202 10.862C39.5156 8.1189 45.5866 6.4472 50.696 5.34058C61.1312 3.08042 74.1272 1.82215 86.825 1.07742Z" fill="black"/>
</g>
<defs>
<clipPath id="clip0_110_39">
<rect width="200" height="200" fill="white"/>
</clipPath>
</defs>
</svg>
