<svg width="200" height="200" viewBox="0 0 200 200" fill="none" xmlns="http://www.w3.org/2000/svg">
<path d="M23.3078 37.5968L156.495 2.60834C171.062 -1.95234 188.149 -1.19144 194.162 10.2135C198.777 18.9657 200.406 27.1424 194.162 37.7862L154.206 97.4954L181.884 112.898C195.619 120.319 201.218 128.686 199.781 140.665C198.207 153.791 192.289 158.73 174.392 164.055L44.1182 197.522C22.267 202.466 9.5228 199.665 4.99448 192.193C-1.08081 182.17 -2.66318 177.987 6.24304 163.104L19.5619 144.274L48.0724 102.439L23.3078 88.1778C10.1969 81.1426 7.05252 76.769 3.12154 67.831C-0.208325 60.2598 4.5781 42.921 23.3078 37.5968Z" fill="black"/>
</svg>
